<?xml version="1.0" standalone="no"?>
<!DOCTYPE svg PUBLIC "-//W3C//DTD SVG 20010904//EN"
 "http://www.w3.org/TR/2001/REC-SVG-20010904/DTD/svg10.dtd">
<svg version="1.0" xmlns="http://www.w3.org/2000/svg"
 width="640.000000pt" height="640.000000pt" viewBox="0 0 640.000000 640.000000"
 preserveAspectRatio="xMidYMid meet">
<metadata>
Created by potrace 1.11, written by Peter Selinger 2001-2013
</metadata>
<g transform="translate(0.000000,640.000000) scale(0.100000,-0.100000)"
fill="#000000" stroke="none">
<path d="M3060 5744 c-148 -40 -254 -153 -286 -305 -45 -216 100 -427 321
-468 32 -6 60 -11 62 -11 2 0 -8 -22 -22 -50 -30 -59 -30 -59 -5 -53 20 5 20
2 18 -378 l-3 -384 -50 -8 c-119 -20 -233 -105 -289 -215 l-26 -51 -56 26
c-170 78 -330 188 -452 312 -88 90 -144 162 -220 288 -51 84 -52 88 -31 93 20
5 18 8 -24 42 -44 37 -45 37 -51 15 -3 -12 -6 -42 -6 -67 1 -43 1 -44 16 -25
14 17 17 18 25 5 5 -8 33 -54 62 -103 143 -240 383 -454 641 -573 l84 -38 -1
-88 -1 -87 -46 -8 c-77 -13 -497 -9 -580 5 -233 42 -461 120 -638 219 -57 32
-61 36 -45 48 16 12 12 14 -29 20 -79 12 -83 7 -46 -50 27 -42 33 -46 36 -29
3 20 10 18 115 -36 205 -106 428 -175 661 -206 94 -13 166 -15 321 -10 110 3
214 9 230 12 29 5 32 3 54 -51 30 -71 117 -162 186 -194 28 -13 76 -29 108
-35 l57 -11 0 -228 c0 -224 0 -228 -20 -222 -11 3 -20 4 -20 1 0 -11 44 -96
49 -96 4 0 18 23 32 50 26 49 26 50 5 44 l-21 -5 3 228 3 228 70 17 c123 30
222 112 270 223 l24 55 65 -8 c36 -4 164 -7 285 -6 199 1 233 3 350 28 172 36
342 94 494 169 69 34 128 63 132 65 4 2 9 -7 11 -19 2 -19 8 -14 36 31 18 29
31 55 28 57 -2 3 -30 1 -62 -3 -49 -6 -55 -9 -41 -19 22 -16 17 -20 -108 -83
-193 -96 -385 -155 -605 -188 -92 -13 -157 -15 -320 -11 -113 4 -216 9 -230
12 -24 6 -25 9 -26 94 l-1 88 52 22 c78 32 220 116 305 179 148 110 300 285
395 452 45 79 41 76 60 60 13 -11 15 -5 15 49 0 60 1 62 23 55 12 -4 56 -7 97
-7 174 2 320 110 371 276 61 197 -28 390 -219 480 -60 28 -77 31 -158 31 -85
1 -96 -2 -167 -37 -266 -131 -307 -484 -77 -666 28 -22 66 -45 85 -52 19 -7
35 -15 35 -19 0 -3 -22 -21 -47 -40 -41 -30 -44 -35 -25 -38 l22 -3 -22 -42
c-136 -269 -409 -522 -701 -651 l-57 -25 -26 51 c-55 109 -175 200 -285 214
l-49 7 -2 384 -3 384 23 -6 23 -6 -27 52 c-29 59 -27 63 42 73 108 14 227 104
278 208 113 231 -10 498 -259 563 -72 18 -123 18 -195 -1z m214 -80 c122 -43
207 -165 208 -301 1 -131 -72 -243 -193 -298 -55 -24 -70 -27 -143 -23 -61 4
-93 11 -131 30 -109 57 -175 163 -175 284 0 95 22 153 81 219 95 103 221 135
353 89z m1352 -369 c71 -31 128 -86 161 -153 24 -49 28 -69 28 -142 0 -69 -5
-94 -25 -135 -119 -244 -463 -249 -582 -7 -29 59 -33 76 -32 147 0 66 5 90 27
137 76 157 263 225 423 153z m-1323 -1309 c219 -107 243 -418 44 -555 -24 -16
-70 -37 -102 -46 -159 -47 -338 48 -390 206 -27 80 -17 191 22 260 86 152 272
211 426 135z"/>
<path d="M1735 5386 c-102 -25 -188 -87 -243 -174 -126 -197 -50 -463 162
-567 197 -96 440 -8 535 195 22 48 26 68 26 160 0 93 -3 111 -27 163 -54 114
-168 204 -289 227 -65 13 -101 12 -164 -4z m227 -93 c67 -30 130 -92 161 -161
32 -70 31 -199 -3 -267 -60 -123 -173 -190 -310 -183 -336 16 -424 460 -122
612 81 41 180 41 274 -1z"/>
<path d="M936 4540 c-195 -49 -330 -251 -298 -444 21 -132 109 -248 229 -304
52 -24 70 -27 163 -27 93 0 112 3 162 27 160 75 256 251 229 419 -31 188 -183
326 -369 335 -42 2 -94 -1 -116 -6z m230 -94 c62 -29 124 -90 156 -154 19 -39
23 -63 23 -142 0 -87 -3 -100 -30 -149 -150 -271 -556 -202 -605 103 -41 253
221 449 456 342z"/>
<path d="M5177 4540 c-198 -50 -335 -259 -297 -453 25 -128 112 -241 228 -295
50 -24 69 -27 162 -27 93 0 112 3 162 27 118 55 206 170 228 299 40 228 -135
444 -368 455 -42 2 -94 -1 -115 -6z m229 -94 c162 -74 233 -275 153 -434 -56
-113 -166 -182 -289 -182 -123 0 -233 69 -289 182 -59 117 -36 270 53 362 101
103 243 131 372 72z"/>
<path d="M3083 2730 c-112 -24 -226 -111 -275 -212 -122 -248 26 -526 305
-573 l37 -6 0 -229 c0 -127 -3 -230 -6 -230 -3 0 -14 5 -25 10 -17 10 -16 5 8
-45 15 -30 30 -55 33 -55 3 0 18 25 33 55 24 50 25 55 7 45 -19 -10 -19 -6
-22 220 l-3 230 35 6 c152 25 274 124 326 264 25 66 23 201 -3 267 -43 108
-137 201 -241 238 -56 19 -155 26 -209 15z m193 -87 c70 -24 165 -120 188
-191 23 -68 23 -156 0 -224 -23 -71 -118 -167 -188 -191 -63 -21 -168 -22
-229 -1 -67 23 -144 96 -178 169 -24 49 -29 73 -29 135 0 130 66 234 185 291
72 35 171 39 251 12z"/>
<path d="M3045 1362 c-155 -53 -251 -166 -276 -322 -27 -166 71 -344 229 -418
50 -24 69 -27 162 -27 93 0 112 3 162 27 162 76 261 262 229 429 -23 115 -85
208 -179 267 -95 61 -228 78 -327 44z m260 -91 c195 -96 239 -345 90 -509 -77
-86 -212 -122 -328 -88 -73 21 -151 84 -190 155 -39 69 -49 181 -23 259 62
186 272 271 451 183z"/>
</g>
</svg>
